<svg width="108" height="108" viewBox="0 0 108 108" fill="none" xmlns="http://www.w3.org/2000/svg">
<path d="M13 19.5C12.4477 19.5 12 19.9477 12 20.5C12 21.0523 12.4477 21.5 13 21.5V19.5ZM27 21.5C27.5523 21.5 28 21.0523 28 20.5C28 19.9477 27.5523 19.5 27 19.5V21.5ZM13 24.5C12.4477 24.5 12 24.9477 12 25.5C12 26.0523 12.4477 26.5 13 26.5V24.5ZM17 26.5C17.5523 26.5 18 26.0523 18 25.5C18 24.9477 17.5523 24.5 17 24.5V26.5ZM95.5 21.5C96.0523 21.5 96.5 21.0523 96.5 20.5C96.5 19.9477 96.0523 19.5 95.5 19.5V21.5ZM92.5 19.5C91.9477 19.5 91.5 19.9477 91.5 20.5C91.5 21.0523 91.9477 21.5 92.5 21.5V19.5ZM77.75 45L78.6533 44.5709C78.4876 44.2222 78.1361 44 77.75 44C77.3639 44 77.0124 44.2222 76.8467 44.5709L77.75 45ZM82.5 55H83.5C83.5 54.8516 83.467 54.705 83.4033 54.5709L82.5 55ZM73 55L72.0967 54.5709C72.033 54.705 72 54.8516 72 55H73ZM78.75 61.5C78.75 60.9477 78.3023 60.5 77.75 60.5C77.1977 60.5 76.75 60.9477 76.75 61.5H78.75ZM76.75 68.5C76.75 69.0523 77.1977 69.5 77.75 69.5C78.3023 69.5 78.75 69.0523 78.75 68.5H76.75ZM68.5 33H69.5C69.5 32.4477 69.0523 32 68.5 32V33ZM54.5 33V32C53.9477 32 53.5 32.4477 53.5 33H54.5ZM61.5 62.5C60.9477 62.5 60.5 62.9477 60.5 63.5C60.5 64.0523 60.9477 64.5 61.5 64.5V62.5ZM65 57C64.4477 57 64 57.4477 64 58C64 58.5523 64.4477 59 65 59V57ZM61.5 51.5C60.9477 51.5 60.5 51.9477 60.5 52.5C60.5 53.0523 60.9477 53.5 61.5 53.5V51.5ZM65 46C64.4477 46 64 46.4477 64 47C64 47.5523 64.4477 48 65 48V46ZM68.5 41.5H69.5C69.5 40.9477 69.0523 40.5 68.5 40.5V41.5ZM61.5 40.5C60.9477 40.5 60.5 40.9477 60.5 41.5C60.5 42.0523 60.9477 42.5 61.5 42.5V40.5ZM50 41.5H51C51 41.3217 50.9523 41.1467 50.8619 40.993L50 41.5ZM40 41.5L39.1381 40.993C39.0477 41.1467 39 41.3217 39 41.5H40ZM45 33L45.8619 32.493C45.6823 32.1875 45.3544 32 45 32C44.6456 32 44.3177 32.1875 44.1381 32.493L45 33ZM34.5 57L35.4932 57.1168C35.5054 57.0125 35.5012 56.9069 35.4806 56.8039L34.5 57ZM30.5 33L31.324 32.4335C31.1375 32.1621 30.8293 32 30.5 32C30.1707 32 29.8625 32.1621 29.676 32.4335L30.5 33ZM27.5068 74.1168C27.5714 74.6653 28.0683 75.0577 28.6168 74.9932C29.1653 74.9286 29.5577 74.4317 29.4932 73.8832L27.5068 74.1168ZM26.5 57L25.5194 56.8039C25.4988 56.9069 25.4946 57.0125 25.5068 57.1168L26.5 57ZM52.5 77.5C51.9477 77.5 51.5 77.9477 51.5 78.5C51.5 79.0523 51.9477 79.5 52.5 79.5V77.5ZM56 79.5C56.5523 79.5 57 79.0523 57 78.5C57 77.9477 56.5523 77.5 56 77.5V79.5ZM37 91V90C36.4477 90 36 90.4477 36 91H37ZM37 95V96C37.5523 96 38 95.5523 38 95H37ZM21 94C20.4477 94 20 94.4477 20 95C20 95.5523 20.4477 96 21 96V94ZM71 91H72C72 90.4477 71.5523 90 71 90V91ZM87 96C87.5523 96 88 95.5523 88 95C88 94.4477 87.5523 94 87 94V96ZM46 50C46 49.4477 45.5523 49 45 49C44.4477 49 44 49.4477 44 50H46ZM44 68C44 68.5523 44.4477 69 45 69C45.5523 69 46 68.5523 46 68H44ZM27.1557 37.8644L26.3317 37.2979L27.1557 37.8644ZM34.5909 44.5276L33.6664 44.1464L34.5909 44.5276ZM33.8443 37.8644L34.6683 37.2979L33.8443 37.8644ZM97 13H11V15H97V13ZM13 21.5H27V19.5H13V21.5ZM13 26.5H17V24.5H13V26.5ZM95.5 19.5H92.5V21.5H95.5V19.5ZM6 18V74H8V18H6ZM6 74V79H8V74H6ZM102 79V74H100V79H102ZM102 74V18H100V74H102ZM82.5 75H101V73H82.5V75ZM83.5 74V58H81.5V74H83.5ZM73 75H82.5V73H73V75ZM72 58V74H74V58H72ZM82.5 57H77.75V59H82.5V57ZM77.75 57H73V59H77.75V57ZM83.5 58V55H81.5V58H83.5ZM83.4033 54.5709L78.6533 44.5709L76.8467 45.4291L81.5967 55.4291L83.4033 54.5709ZM74 58V55H72V58H74ZM73.9033 55.4291L78.6533 45.4291L76.8467 44.5709L72.0967 54.5709L73.9033 55.4291ZM76.75 61.5V68.5H78.75V61.5H76.75ZM68.5 75H73V73H68.5V75ZM68.5 32H54.5V34H68.5V32ZM54.5 75H68.5V73H54.5V75ZM53.5 33V74H55.5V33H53.5ZM69.5 74V63.5H67.5V74H69.5ZM68.5 62.5H61.5V64.5H68.5V62.5ZM69.5 63.5V58H67.5V63.5H69.5ZM69.5 58V33H67.5V58H69.5ZM68.5 57H65V59H68.5V57ZM68.5 51.5H61.5V53.5H68.5V51.5ZM67.5 52.5V58H69.5V52.5H67.5ZM69.5 52.5V47H67.5V52.5H69.5ZM68.5 46H65V48H68.5V46ZM68.5 40.5H61.5V42.5H68.5V40.5ZM67.5 41.5V47H69.5V41.5H67.5ZM50 75H54.5V73H50V75ZM40 75H50V73H40V75ZM51 74V47H49V74H51ZM51 47V41.5H49V47H51ZM39 41.5V47H41V41.5H39ZM39 47V74H41V47H39ZM50 46H40V48H50V46ZM50 40.5H45V42.5H50V40.5ZM45 40.5H40V42.5H45V40.5ZM44.1381 33.507L49.1381 42.007L50.8619 40.993L45.8619 32.493L44.1381 33.507ZM44.1381 32.493L39.1381 40.993L40.8619 42.007L45.8619 33.507L44.1381 32.493ZM7 75H32.5V73H7V75ZM32.5 75H40V73H32.5V75ZM33.4932 74.1168L35.4932 57.1168L33.5068 56.8832L31.5068 73.8832L33.4932 74.1168ZM35.4806 56.8039L33.4806 46.8039L31.5194 47.1961L33.5194 57.1961L35.4806 56.8039ZM33.0145 47.8575C34.406 47.0226 35.0703 45.9886 35.5154 44.9087L33.6664 44.1464C33.3409 44.936 32.92 45.5818 31.9855 46.1425L33.0145 47.8575ZM34.6683 37.2979L31.324 32.4335L29.676 33.5665L33.0202 38.4309L34.6683 37.2979ZM29.4932 73.8832L27.4932 56.8832L25.5068 57.1168L27.5068 74.1168L29.4932 73.8832ZM27.4806 57.1961L29.4806 47.1961L27.5194 46.8039L25.5194 56.8039L27.4806 57.1961ZM29.0145 46.1425C28.08 45.5818 27.6591 44.936 27.3336 44.1464L25.4846 44.9087C25.9297 45.9886 26.594 47.0226 27.9855 47.8575L29.0145 46.1425ZM27.9798 38.4309L31.324 33.5665L29.676 32.4335L26.3317 37.2979L27.9798 38.4309ZM32.5 47C32.0528 46.1056 32.053 46.1055 32.0531 46.1054C32.0532 46.1054 32.0533 46.1053 32.0534 46.1052C32.0536 46.1051 32.0538 46.105 32.054 46.105C32.0544 46.1048 32.0546 46.1046 32.0549 46.1045C32.0553 46.1043 32.0556 46.1042 32.0556 46.1042C32.0556 46.1042 32.0547 46.1046 32.053 46.1055C32.0494 46.1072 32.0424 46.1105 32.0322 46.1153C32.0117 46.1249 31.9784 46.14 31.9342 46.159C31.8454 46.1971 31.7153 46.2491 31.5588 46.3013C31.2337 46.4097 30.8487 46.5 30.5 46.5V48.5C31.1513 48.5 31.7663 48.3403 32.1912 48.1987C32.4097 48.1259 32.5921 48.0529 32.722 47.9973C32.7872 47.9693 32.8399 47.9454 32.878 47.9277C32.897 47.9188 32.9125 47.9114 32.9241 47.9058C32.9299 47.903 32.9347 47.9006 32.9386 47.8987C32.9405 47.8977 32.9422 47.8969 32.9437 47.8962C32.9444 47.8958 32.945 47.8955 32.9456 47.8952C32.9459 47.8951 32.9462 47.8949 32.9465 47.8948C32.9466 47.8947 32.9468 47.8946 32.9469 47.8946C32.947 47.8945 32.9472 47.8944 32.5 47ZM30.5 46.5C30.1513 46.5 29.7663 46.4097 29.4412 46.3013C29.2847 46.2491 29.1546 46.1971 29.0658 46.159C29.0216 46.14 28.9883 46.1249 28.9678 46.1153C28.9576 46.1105 28.9506 46.1072 28.947 46.1055C28.9453 46.1046 28.9444 46.1042 28.9444 46.1042C28.9444 46.1042 28.9447 46.1043 28.9451 46.1045C28.9454 46.1046 28.9456 46.1048 28.946 46.105C28.9462 46.105 28.9464 46.1051 28.9466 46.1052C28.9467 46.1053 28.9468 46.1054 28.9469 46.1054C28.947 46.1055 28.9472 46.1056 28.5 47C28.0528 47.8944 28.053 47.8945 28.0531 47.8946C28.0532 47.8946 28.0534 47.8947 28.0535 47.8948C28.0538 47.8949 28.0541 47.8951 28.0544 47.8952C28.055 47.8955 28.0556 47.8958 28.0563 47.8962C28.0578 47.8969 28.0595 47.8977 28.0614 47.8987C28.0653 47.9006 28.0701 47.903 28.0759 47.9058C28.0875 47.9114 28.103 47.9188 28.122 47.9277C28.1601 47.9454 28.2128 47.9693 28.278 47.9973C28.4079 48.0529 28.5903 48.1259 28.8088 48.1987C29.2337 48.3403 29.8487 48.5 30.5 48.5V46.5ZM34.5 56H26.5V58H34.5V56ZM52.5 79.5H56V77.5H52.5V79.5ZM11 84H45.5V82H11V84ZM45.5 84H62.5V82H45.5V84ZM62.5 84H97V82H62.5V84ZM44.5637 82.6489L41.5637 90.6489L43.4363 91.3511L46.4363 83.3511L44.5637 82.6489ZM42.5 90H37V92H42.5V90ZM36 91V95H38V91H36ZM37 94H21V96H37V94ZM21 96H71V94H21V96ZM61.5637 83.3511L64.5637 91.3511L66.4363 90.6489L63.4363 82.6489L61.5637 83.3511ZM65.5 92H71V90H65.5V92ZM70 91V95H72V91H70ZM71 96H87V94H71V96ZM42.5 92H65.5V90H42.5V92ZM44 50V68H46V50H44ZM27.3336 44.1464C26.5821 42.3233 26.8479 40.0773 27.9798 38.4309L26.3317 37.2979C24.8316 39.4798 24.4655 42.4367 25.4846 44.9087L27.3336 44.1464ZM97 15C98.6569 15 100 16.3431 100 18H102C102 15.2386 99.7614 13 97 13V15ZM35.5154 44.9087C36.5345 42.4367 36.1684 39.4798 34.6683 37.2979L33.0202 38.4309C34.1521 40.0773 34.4179 42.3233 33.6664 44.1464L35.5154 44.9087ZM100 79C100 80.6569 98.6569 82 97 82V84C99.7614 84 102 81.7614 102 79H100ZM6 79C6 81.7614 8.23858 84 11 84V82C9.34315 82 8 80.6569 8 79H6ZM11 13C8.23858 13 6 15.2386 6 18H8C8 16.3431 9.34315 15 11 15V13Z" fill="#8EA2C7"/>
</svg>
