<svg width="108" height="108" viewBox="0 0 108 108" fill="none" xmlns="http://www.w3.org/2000/svg">
<path d="M14.2929 71.7929C13.9024 72.1834 13.9024 72.8166 14.2929 73.2071C14.6834 73.5976 15.3166 73.5976 15.7071 73.2071L14.2929 71.7929ZM24.7071 64.2071C25.0976 63.8166 25.0976 63.1834 24.7071 62.7929C24.3166 62.4024 23.6834 62.4024 23.2929 62.7929L24.7071 64.2071ZM23.2929 71.7929C22.9024 72.1834 22.9024 72.8166 23.2929 73.2071C23.6834 73.5976 24.3166 73.5976 24.7071 73.2071L23.2929 71.7929ZM33.7071 64.2071C34.0976 63.8166 34.0976 63.1834 33.7071 62.7929C33.3166 62.4024 32.6834 62.4024 32.2929 62.7929L33.7071 64.2071ZM42.2929 41.2929C41.9024 41.6834 41.9024 42.3166 42.2929 42.7071C42.6834 43.0976 43.3166 43.0976 43.7071 42.7071L42.2929 41.2929ZM57.2071 29.2071C57.5976 28.8166 57.5976 28.1834 57.2071 27.7929C56.8166 27.4024 56.1834 27.4024 55.7929 27.7929L57.2071 29.2071ZM55.7929 41.2929C55.4024 41.6834 55.4024 42.3166 55.7929 42.7071C56.1834 43.0976 56.8166 43.0976 57.2071 42.7071L55.7929 41.2929ZM70.7071 29.2071C71.0976 28.8166 71.0976 28.1834 70.7071 27.7929C70.3166 27.4024 69.6834 27.4024 69.2929 27.7929L70.7071 29.2071ZM89.2929 73.7929C88.9024 74.1834 88.9024 74.8166 89.2929 75.2071C89.6834 75.5976 90.3166 75.5976 90.7071 75.2071L89.2929 73.7929ZM95.7071 70.2071C96.0976 69.8166 96.0976 69.1834 95.7071 68.7929C95.3166 68.4024 94.6834 68.4024 94.2929 68.7929L95.7071 70.2071ZM50 17.5C49.4477 17.5 49 17.9477 49 18.5C49 19.0523 49.4477 19.5 50 19.5V17.5ZM58 19.5C58.5523 19.5 59 19.0523 59 18.5C59 17.9477 58.5523 17.5 58 17.5V19.5ZM13.5 45V18H11.5V45H13.5ZM18.5 13H89V11H18.5V13ZM94 18V55H96V18H94ZM95 56H99V54H95V56ZM99 95H86V97H99V95ZM86 56H95V54H86V56ZM84 61.5V58H82V61.5H84ZM83 60.5H42.5V62.5H83V60.5ZM43.5 61.5V48H41.5V61.5H43.5ZM39.5 44H12.5V46H39.5V44ZM12.5 44H9V46H12.5V44ZM9 97H42.5V95H9V97ZM42.5 97H70.1716V95H42.5V97ZM72.8787 89.9645L71.5858 88.6716L70.1716 90.0858L71.4645 91.3787L72.8787 89.9645ZM43.5 96V88.5H41.5V96H43.5ZM49 87.5H42.5V89.5H49V87.5ZM50 88.5V74.5H48V88.5H50ZM43.5 88.5V74.5H41.5V88.5H43.5ZM43.5 74.5V61.5H41.5V74.5H43.5ZM49 73.5H42.5V75.5H49V73.5ZM84 74.5V61.5H82V74.5H84ZM49 75.5H59V73.5H49V75.5ZM59 75.5H83V73.5H59V75.5ZM68.7574 87.5H59V89.5H68.7574V87.5ZM59 87.5H49V89.5H59V87.5ZM58 74.5V88.5H60V74.5H58ZM101 58V88.5H103V58H101ZM101 88.5V93H103V88.5H101ZM84 93V88.5H82V93H84ZM84 88.5V74.5H82V88.5H84ZM102 87.5H83V89.5H102V87.5ZM5 48V88.5H7V48H5ZM5 88.5V93H7V88.5H5ZM6 89.5H42.5V87.5H6V89.5ZM71.5858 88.6716C70.8356 87.9214 69.8182 87.5 68.7574 87.5V89.5C69.2878 89.5 69.7965 89.7107 70.1716 90.0858L71.5858 88.6716ZM70.1716 97C71.3448 97 72.3133 96.3415 72.951 95.548C73.59 94.753 74 93.7042 74 92.6716H72C72 93.2011 71.7768 93.8165 71.3921 94.2951C71.0061 94.7754 70.5605 95 70.1716 95V97ZM9 44C6.79086 44 5 45.7909 5 48H7C7 46.8954 7.89543 46 9 46V44ZM43.5 48C43.5 45.7909 41.7091 44 39.5 44V46C40.6046 46 41.5 46.8954 41.5 48H43.5ZM86 54C83.7909 54 82 55.7909 82 58H84C84 56.8954 84.8954 56 86 56V54ZM99 97C101.209 97 103 95.2091 103 93H101C101 94.1046 100.105 95 99 95V97ZM74 92.6716C74 91.6562 73.5966 90.6824 72.8787 89.9645L71.4645 91.3787C71.8074 91.7216 72 92.1866 72 92.6716H74ZM99 56C100.105 56 101 56.8954 101 58H103C103 55.7909 101.209 54 99 54V56ZM89 13C91.7614 13 94 15.2386 94 18H96C96 14.134 92.866 11 89 11V13ZM86 95C84.8954 95 84 94.1046 84 93H82C82 95.2091 83.7909 97 86 97V95ZM9 95C7.89543 95 7 94.1046 7 93H5C5 95.2091 6.79086 97 9 97V95ZM13.5 18C13.5 15.2386 15.7386 13 18.5 13V11C14.634 11 11.5 14.134 11.5 18H13.5ZM52 68.5C52 69.6046 52.8954 70.5 54 70.5V68.5H52ZM54 66.5C52.8954 66.5 52 67.3954 52 68.5H54V66.5ZM56 68.5C56 67.3954 55.1046 66.5 54 66.5V68.5H56ZM54 70.5C55.1046 70.5 56 69.6046 56 68.5H54V70.5ZM15.7071 73.2071L24.7071 64.2071L23.2929 62.7929L14.2929 71.7929L15.7071 73.2071ZM24.7071 73.2071L33.7071 64.2071L32.2929 62.7929L23.2929 71.7929L24.7071 73.2071ZM43.7071 42.7071L57.2071 29.2071L55.7929 27.7929L42.2929 41.2929L43.7071 42.7071ZM57.2071 42.7071L70.7071 29.2071L69.2929 27.7929L55.7929 41.2929L57.2071 42.7071ZM90.7071 75.2071L95.7071 70.2071L94.2929 68.7929L89.2929 73.7929L90.7071 75.2071ZM50 19.5H58V17.5H50V19.5Z" fill="#8EA2C7"/>
</svg>
