<svg width="108" height="108" viewBox="0 0 108 108" fill="none" xmlns="http://www.w3.org/2000/svg">
<path d="M41.3416 55.3576L40.4223 55.1454C40.3492 55.4624 40.4445 55.7947 40.6745 56.0247L41.3416 55.3576ZM50.6796 35.342L51.347 36.0087L51.347 36.0087L50.6796 35.342ZM74.6991 59.3609L74.0323 58.6935L74.0323 58.6935L74.6991 59.3609ZM54.6835 68.699L54.0164 69.3661C54.2464 69.596 54.5787 69.6913 54.8956 69.6182L54.6835 68.699ZM46.0114 60.0271L46.6785 59.36L46.6784 59.36L46.0114 60.0271ZM36.6713 62.0289L36.4735 61.1065C36.1356 61.1789 35.8644 61.4303 35.7665 61.7618C35.6686 62.0932 35.7598 62.4517 36.0042 62.696L36.6713 62.0289ZM48.0116 73.3693L47.3446 74.0364C47.5889 74.2808 47.9474 74.372 48.2788 74.2741C48.6103 74.1762 48.8617 73.905 48.9341 73.5671L48.0116 73.3693ZM19.6607 50.355C20.0291 49.9866 20.0291 49.3893 19.6607 49.0208C19.2923 48.6524 18.6949 48.6524 18.3265 49.0208L19.6607 50.355ZM14.324 53.0233C13.9556 53.3918 13.9556 53.9891 14.324 54.3575C14.6924 54.7259 15.2898 54.7259 15.6582 54.3575L14.324 53.0233ZM12.9898 57.0258C13.3583 56.6574 13.3583 56.0601 12.9898 55.6917C12.6214 55.3233 12.0241 55.3233 11.6557 55.6917L12.9898 57.0258ZM10.3215 57.0258C9.9531 57.3943 9.9531 57.9916 10.3215 58.36C10.6899 58.7284 11.2873 58.7284 11.6557 58.36L10.3215 57.0258ZM22.329 53.0233C22.6974 52.6549 22.6974 52.0576 22.329 51.6892C21.9606 51.3208 21.3633 51.3208 20.9948 51.6892L22.329 53.0233ZM19.6607 53.0233C19.2922 53.3918 19.2922 53.9891 19.6607 54.3575C20.0291 54.7259 20.6264 54.7259 20.9948 54.3575L19.6607 53.0233ZM18.3265 57.0258C18.6949 56.6574 18.6949 56.0601 18.3265 55.6917C17.9581 55.3233 17.3608 55.3233 16.9923 55.6917L18.3265 57.0258ZM12.9898 59.6942C12.6214 60.0626 12.6214 60.6599 12.9898 61.0283C13.3583 61.3967 13.9556 61.3967 14.324 61.0283L12.9898 59.6942ZM24.9973 55.6917C25.3657 55.3233 25.3657 54.7259 24.9973 54.3575C24.6289 53.9891 24.0316 53.9891 23.6632 54.3575L24.9973 55.6917ZM17.993 60.0277C17.6245 60.3961 17.6245 60.9935 17.993 61.3619C18.3614 61.7303 18.9587 61.7303 19.3271 61.3619L17.993 60.0277ZM55.6833 86.3776C56.0517 86.0092 56.0517 85.4119 55.6833 85.0435C55.3149 84.675 54.7175 84.675 54.3491 85.0435L55.6833 86.3776ZM50.3466 89.046C49.9782 89.4144 49.9782 90.0117 50.3466 90.3801C50.715 90.7485 51.3124 90.7485 51.6808 90.3801L50.3466 89.046ZM49.0125 93.0485C49.3809 92.68 49.3809 92.0827 49.0125 91.7143C48.644 91.3459 48.0467 91.3459 47.6783 91.7143L49.0125 93.0485ZM46.3441 93.0485C45.9757 93.4169 45.9757 94.0142 46.3441 94.3826C46.7126 94.751 47.3099 94.751 47.6783 94.3826L46.3441 93.0485ZM58.3516 89.046C58.72 88.6775 58.72 88.0802 58.3516 87.7118C57.9832 87.3434 57.3859 87.3434 57.0175 87.7118L58.3516 89.046ZM55.6833 89.046C55.3149 89.4144 55.3149 90.0117 55.6833 90.3801C56.0517 90.7485 56.649 90.7485 57.0175 90.3801L55.6833 89.046ZM54.3491 93.0485C54.7175 92.68 54.7175 92.0827 54.3491 91.7143C53.9807 91.3459 53.3834 91.3459 53.015 91.7143L54.3491 93.0485ZM49.0125 95.7168C48.644 96.0852 48.644 96.6825 49.0125 97.0509C49.3809 97.4194 49.9782 97.4194 50.3466 97.0509L49.0125 95.7168ZM61.0199 91.7143C61.3884 91.3459 61.3884 90.7486 61.02 90.3801C60.6516 90.0117 60.0542 90.0117 59.6858 90.3801L61.0199 91.7143ZM54.0154 96.0501C53.647 96.4185 53.647 97.0158 54.0154 97.3843C54.3838 97.7527 54.9811 97.7527 55.3495 97.3843L54.0154 96.0501ZM96.3759 13.6649L97.3166 13.7355C97.3372 13.4615 97.2372 13.1921 97.0429 12.9978C96.8487 12.8035 96.5793 12.7036 96.3053 12.7242L96.3759 13.6649ZM94.3138 26.947L95.2306 27.1693L95.2306 27.1693L94.3138 26.947ZM85.5857 19.3009L84.8119 19.8405L84.8119 19.8405L85.5857 19.3009ZM90.7396 24.4549L90.2001 25.2287L90.2001 25.2287L90.7396 24.4549ZM33.0023 77.0383L32.0772 76.8533C32.0154 77.1626 32.1122 77.4823 32.3352 77.7054C32.5583 77.9284 32.878 78.0252 33.1873 77.9634L33.0023 77.0383ZM39.7112 81.0048C39.3229 81.3522 39.2897 81.9486 39.6372 82.3369C39.9846 82.7252 40.581 82.7583 40.9693 82.4109L39.7112 81.0048ZM28.3327 69.7004L27.6297 69.0713L28.3327 69.7004ZM25.6644 75.7041L24.7268 75.5999C24.6971 75.8666 24.7825 76.1333 24.9614 76.3333C25.1404 76.5332 25.3961 76.6475 25.6644 76.6475L25.6644 75.7041ZM28.9998 75.7041L29.5481 76.4718C29.8819 76.2334 30.0234 75.8068 29.8982 75.4162C29.773 75.0257 29.4099 74.7607 28.9998 74.7607L28.9998 75.7041ZM25.6644 84.3762L24.7492 84.605C24.8542 85.025 25.2315 85.3196 25.6644 85.3196L25.6644 84.3762ZM28.9998 85.3196C29.5208 85.3196 29.9432 84.8972 29.9432 84.3762C29.9432 83.8552 29.5208 83.4328 28.9998 83.4328L28.9998 85.3196ZM37.2075 84.5413C37.7062 84.3902 37.988 83.8636 37.8369 83.3649C37.6859 82.8663 37.1592 82.5845 36.6606 82.7355L37.2075 84.5413ZM32.3449 83.3788C31.8245 83.4038 31.423 83.8461 31.4481 84.3665C31.4731 84.8869 31.9154 85.2885 32.4358 85.2634L32.3449 83.3788ZM34.8325 69.7061L35.5872 70.2721L34.8325 69.7061ZM38.7498 68.3883L39.009 67.4812L39.009 67.4812L38.7498 68.3883ZM34.1743 71.1782L35.0994 71.3632L35.0994 71.3632L34.1743 71.1782ZM41.6032 71.119L40.6961 71.3782L40.6961 71.3782L41.6032 71.119ZM38.9216 68.4374L38.6624 69.3445L38.6624 69.3445L38.9216 68.4374ZM40.3345 75.2081L39.7685 74.4533L40.3345 75.2081ZM41.6523 71.2908L42.5594 71.0316L42.5594 71.0316L41.6523 71.2908ZM38.8624 75.8663L38.6774 74.9412L38.6774 74.9412L38.8624 75.8663ZM85.7018 72.3687L86.5968 72.0704C86.4684 71.6852 86.1079 71.4253 85.7018 71.4253C85.2957 71.4253 84.9352 71.6852 84.8068 72.0704L85.7018 72.3687ZM91.0385 77.7054L91.3368 78.6004C91.722 78.472 91.9819 78.1114 91.9819 77.7054C91.9819 77.2993 91.722 76.9388 91.3368 76.8104L91.0385 77.7054ZM90.1684 77.4154L90.4667 76.5204L90.4667 76.5204L90.1684 77.4154ZM80.3651 77.7054L80.0668 76.8104C79.6816 76.9388 79.4217 77.2993 79.4217 77.7054C79.4217 78.1114 79.6816 78.4719 80.0668 78.6004L80.3651 77.7054ZM81.2352 77.9954L81.5335 77.1004L81.5335 77.1004L81.2352 77.9954ZM85.7018 83.042L84.8068 83.3404C84.9352 83.7256 85.2957 83.9854 85.7018 83.9854C86.1079 83.9854 86.4684 83.7256 86.5968 83.3404L85.7018 83.042ZM85.4118 82.172L86.3068 81.8737L86.3068 81.8737L85.4118 82.172ZM81.2352 77.4154L81.5335 78.3103L81.5335 78.3103L81.2352 77.4154ZM85.4118 73.2388L86.3068 73.5371L86.3068 73.5371L85.4118 73.2388ZM85.9918 82.172L85.0968 81.8737L85.0968 81.8737L85.9918 82.172ZM90.1684 77.9954L89.8701 77.1004L89.8701 77.1004L90.1684 77.9954ZM17.1596 27.7867L18.0546 27.4884C17.9261 27.1032 17.5656 26.8433 17.1596 26.8433C16.7535 26.8433 16.393 27.1032 16.2646 27.4884L17.1596 27.7867ZM17.4496 28.6568L18.3446 28.3584L18.3446 28.3584L17.4496 28.6568ZM22.4962 33.1234L22.7946 34.0184C23.1798 33.89 23.4396 33.5294 23.4396 33.1234C23.4396 32.7173 23.1798 32.3568 22.7946 32.2284L22.4962 33.1234ZM21.6262 32.8334L21.9245 31.9384L21.9245 31.9384L21.6262 32.8334ZM11.8229 33.1234L11.5246 32.2284C11.1394 32.3568 10.8795 32.7173 10.8795 33.1234C10.8795 33.5294 11.1394 33.89 11.5246 34.0184L11.8229 33.1234ZM12.693 33.4134L12.9913 32.5184L12.9913 32.5184L12.693 33.4134ZM17.1596 38.46L16.2646 38.7584C16.393 39.1436 16.7535 39.4034 17.1596 39.4034C17.5656 39.4034 17.9261 39.1436 18.0546 38.7584L17.1596 38.46ZM16.8696 37.59L17.7645 37.2917L17.7645 37.2917L16.8696 37.59ZM12.693 32.8334L12.3946 31.9384L12.3946 31.9384L12.693 32.8334ZM16.8696 28.6568L15.9746 28.3584L15.9746 28.3584L16.8696 28.6568ZM17.4496 37.59L18.3446 37.8883L18.3446 37.8883L17.4496 37.59ZM21.6262 33.4134L21.9245 34.3084L21.9245 34.3084L21.6262 33.4134ZM41.4145 51.4241C41.0463 52.6363 40.7151 53.8767 40.4223 55.1454L42.2608 55.5697C42.5441 54.3422 42.8642 53.1432 43.2198 51.9726L41.4145 51.4241ZM41.6501 51.0313L40.3333 52.348L41.6675 53.6822L42.9842 52.3654L41.6501 51.0313ZM29.66 52.348L23.6638 46.3519L22.3296 47.686L28.3258 53.6822L29.66 52.348ZM23.6638 46.3519L34.0046 36.0111L32.6704 34.6769L22.3297 45.0177L23.6638 46.3519ZM50.3678 34.3271C46.4501 39.2032 43.3962 44.9006 41.4145 51.4241L43.2198 51.9726C45.1323 45.6769 48.0735 40.195 51.8386 35.5089L50.3678 34.3271ZM51.347 36.0087L51.7706 35.5848L50.4358 34.2512L50.0122 34.6752L51.347 36.0087ZM57.6756 67.0563L56.3588 68.3731L57.693 69.7072L59.0098 68.3905L57.6756 67.0563ZM56.3588 81.7147L62.355 87.7109L63.6892 86.3767L57.693 80.3806L56.3588 81.7147ZM65.0233 87.7109L75.3641 77.3701L74.03 76.0359L63.6892 86.3767L65.0233 87.7109ZM74.5322 58.2019C69.846 61.967 64.3641 64.9082 58.0685 66.8207L58.6169 68.626C65.1405 66.6443 70.8378 63.5905 75.7139 59.6728L74.5322 58.2019ZM75.3658 60.0283L75.7898 59.6047L74.4563 58.2699L74.0323 58.6935L75.3658 60.0283ZM58.0685 66.8207C56.8979 67.1763 55.6988 67.4965 54.4713 67.7797L54.8956 69.6182C56.1643 69.3254 57.4047 68.9943 58.6169 68.626L58.0685 66.8207ZM40.6745 56.0247L45.3443 60.6942L46.6784 59.36L42.0086 54.6905L40.6745 56.0247ZM49.3466 64.6965L54.0164 69.3661L55.3505 68.0319L50.6807 63.3623L49.3466 64.6965ZM45.8137 59.1047L36.4735 61.1065L36.869 62.9514L46.2091 60.9496L45.8137 59.1047ZM49.0912 63.8317L47.0892 73.1716L48.9341 73.5671L50.9361 64.2271L49.0912 63.8317ZM18.3265 49.0208L14.324 53.0233L15.6582 54.3575L19.6607 50.355L18.3265 49.0208ZM11.6557 55.6917L10.3215 57.0258L11.6557 58.36L12.9898 57.0258L11.6557 55.6917ZM20.9948 51.6892L19.6607 53.0233L20.9948 54.3575L22.329 53.0233L20.9948 51.6892ZM16.9923 55.6917L12.9898 59.6942L14.324 61.0283L18.3265 57.0258L16.9923 55.6917ZM23.6632 54.3575L17.993 60.0277L19.3271 61.3619L24.9973 55.6917L23.6632 54.3575ZM54.3491 85.0435L50.3466 89.046L51.6808 90.3801L55.6833 86.3776L54.3491 85.0435ZM47.6783 91.7143L46.3441 93.0485L47.6783 94.3826L49.0125 93.0485L47.6783 91.7143ZM57.0175 87.7118L55.6833 89.046L57.0175 90.3801L58.3516 89.046L57.0175 87.7118ZM53.015 91.7143L49.0125 95.7168L50.3466 97.0509L54.3491 93.0485L53.015 91.7143ZM59.6858 90.3801L54.0154 96.0501L55.3495 97.3843L61.0199 91.7143L59.6858 90.3801ZM96.3053 12.7242C91.6824 13.0708 87.184 13.7646 82.8715 14.8102L83.3161 16.6439C87.5227 15.6239 91.9193 14.9451 96.4464 14.6057L96.3053 12.7242ZM82.8715 14.8102C69.7323 17.996 58.2997 24.4549 50.3678 34.3271L51.8386 35.5089C59.459 26.0243 70.4951 19.7525 83.3161 16.6439L82.8715 14.8102ZM95.4351 13.5944C95.0956 18.1216 94.4169 22.5182 93.3969 26.7247L95.2306 27.1693C96.2762 22.8568 96.97 18.3584 97.3166 13.7355L95.4351 13.5944ZM93.3969 26.7247C90.2883 39.5456 84.0167 50.5815 74.5322 58.2019L75.7139 59.6728C85.5862 51.7409 92.0448 40.3084 95.2306 27.1693L93.3969 26.7247ZM82.3199 16.2666L84.8119 19.8405L86.3596 18.7614L83.8676 15.1874L82.3199 16.2666ZM90.2001 25.2287L93.7742 27.7209L94.8534 26.1732L91.2792 23.681L90.2001 25.2287ZM84.8119 19.8405C86.276 21.9404 88.1002 23.7646 90.2001 25.2287L91.2792 23.681C89.362 22.3442 87.6964 20.6786 86.3596 18.7614L84.8119 19.8405ZM75.3641 67.3659C73.3377 65.3395 73.3385 62.0538 75.3658 60.0283L74.0323 58.6935C71.2675 61.4557 71.2665 65.9366 74.03 68.7001L75.3641 67.3659ZM75.3641 77.3701C78.1267 74.6075 78.1267 70.1285 75.3641 67.3659L74.03 68.7001C76.0557 70.7258 76.0557 74.0102 74.03 76.0359L75.3641 77.3701ZM62.355 87.7109C63.0918 88.4477 64.2865 88.4477 65.0233 87.7109L63.6892 86.3767H63.6892L62.355 87.7109ZM41.3405 36.0111C44.104 38.7746 48.5848 38.7735 51.347 36.0087L50.0122 34.6752C47.9868 36.7026 44.7011 36.7033 42.6746 34.6769L41.3405 36.0111ZM56.3588 68.3731C52.6746 72.0573 52.6746 78.0305 56.3588 81.7147L57.693 80.3806C54.7456 77.4332 54.7456 72.6546 57.693 69.7072L56.3588 68.3731ZM34.0046 36.0111C36.0303 33.9853 39.3147 33.9853 41.3405 36.0111L42.6746 34.6769C39.9121 31.9143 35.433 31.9143 32.6704 34.6769L34.0046 36.0111ZM23.6638 46.3519L23.6638 46.3519L22.3297 45.0177C21.5928 45.7545 21.5928 46.9492 22.3296 47.686L23.6638 46.3519ZM40.3333 52.348C37.3859 55.2954 32.6073 55.2954 29.66 52.348L28.3258 53.6822C32.01 57.3664 37.9833 57.3664 41.6675 53.6822L40.3333 52.348ZM75.362 45.3519C72.4147 48.2992 67.6361 48.2992 64.6887 45.3519L63.3545 46.6861C67.0387 50.3702 73.012 50.3702 76.6962 46.686L75.362 45.3519ZM64.6887 45.3519C61.7414 42.4045 61.7414 37.6259 64.6887 34.6786L63.3545 33.3444C59.6704 37.0286 59.6703 43.0019 63.3545 46.6861L64.6887 45.3519ZM64.6887 34.6786C67.6361 31.7312 72.4147 31.7312 75.362 34.6786L76.6962 33.3444C73.012 29.6602 67.0387 29.6602 63.3545 33.3444L64.6887 34.6786ZM75.362 34.6786C78.3094 37.6259 78.3094 42.4045 75.362 45.3519L76.6962 46.686C80.3804 43.0019 80.3804 37.0286 76.6962 33.3444L75.362 34.6786ZM45.3443 60.6942L49.3466 64.6965L50.6808 63.3623L46.6785 59.36L45.3443 60.6942ZM33.1873 77.9634L39.0474 76.7913L38.6774 74.9412L32.8173 76.1132L33.1873 77.9634ZM42.5594 71.0316L42.5103 70.8598L40.6961 71.3782L40.7452 71.55L42.5594 71.0316ZM33.9274 77.2233L35.0994 71.3632L33.2492 70.9932L32.0772 76.8533L33.9274 77.2233ZM38.4906 69.2954L38.6624 69.3445L39.1808 67.5303L39.009 67.4812L38.4906 69.2954ZM40.0067 70.0339C41.0522 71.0794 42.1169 72.8423 42.3466 74.8206C42.5696 76.7415 42.0182 78.9406 39.7112 81.0048L40.9693 82.4109C43.732 79.939 44.5148 77.1349 44.2208 74.603C43.9335 72.1287 42.6301 69.989 41.3408 68.6998L40.0067 70.0339ZM41.3408 68.6998C40.0516 67.4105 37.9119 66.1071 35.4376 65.8198C32.9057 65.5258 30.1016 66.3086 27.6297 69.0713L29.0358 70.3294C31.1 68.0224 33.2991 67.471 35.22 67.694C37.1983 67.9237 38.9611 68.9884 40.0067 70.0339L41.3408 68.6998ZM27.6297 69.0713C26.3507 70.5007 25.018 72.9788 24.7268 75.5999L26.602 75.8083C26.8445 73.6264 27.9837 71.5053 29.0358 70.3294L27.6297 69.0713ZM25.6644 76.6475L28.9998 76.6475L28.9998 74.7607L25.6644 74.7607L25.6644 76.6475ZM28.4515 74.9365C26.7469 76.154 23.5463 79.7936 24.7492 84.605L26.5796 84.1474C25.6478 80.4202 28.1396 77.4779 29.5481 76.4718L28.4515 74.9365ZM25.6644 85.3196L28.9998 85.3196L28.9998 83.4328L25.6644 83.4328L25.6644 85.3196ZM36.6606 82.7355C35.3575 83.1302 33.8829 83.3046 32.3449 83.3788L32.4358 85.2634C34.0408 85.186 35.6908 85.0007 37.2075 84.5413L36.6606 82.7355ZM35.5872 70.2721C36.2591 69.3763 37.414 68.9878 38.4907 69.2954L39.009 67.4812C37.1803 66.9587 35.2189 67.6185 34.0778 69.14L35.5872 70.2721ZM35.0994 71.3632C35.1785 70.9676 35.3452 70.5948 35.5872 70.2721L34.0778 69.14C33.6667 69.6881 33.3836 70.3213 33.2492 70.9932L35.0994 71.3632ZM42.5103 70.8598C42.0502 69.2493 40.7913 67.9904 39.1808 67.5303L38.6624 69.3445C39.6461 69.6255 40.415 70.3945 40.6961 71.3782L42.5103 70.8598ZM40.9006 75.9628C42.422 74.8217 43.0819 72.8603 42.5594 71.0316L40.7452 71.5499C41.0528 72.6266 40.6643 73.7815 39.7685 74.4533L40.9006 75.9628ZM39.0474 76.7913C39.7193 76.657 40.3525 76.3739 40.9006 75.9628L39.7685 74.4533C39.4458 74.6954 39.073 74.8621 38.6774 74.9412L39.0474 76.7913ZM84.8068 72.667L85.0968 73.5371L86.8868 72.9404L86.5968 72.0704L84.8068 72.667ZM91.3368 76.8104L90.4667 76.5204L89.8701 78.3103L90.7401 78.6004L91.3368 76.8104ZM80.0668 78.6004L80.9369 78.8904L81.5335 77.1004L80.6635 76.8104L80.0668 78.6004ZM86.5968 82.7437L86.3068 81.8737L84.5168 82.4703L84.8068 83.3404L86.5968 82.7437ZM80.6635 78.6004L81.5335 78.3103L80.9369 76.5204L80.0668 76.8104L80.6635 78.6004ZM84.8068 72.0704L84.5168 72.9404L86.3068 73.5371L86.5968 72.667L84.8068 72.0704ZM86.5968 83.3404L86.8868 82.4703L85.0968 81.8737L84.8068 82.7437L86.5968 83.3404ZM90.7401 76.8104L89.8701 77.1004L90.4667 78.8904L91.3368 78.6004L90.7401 76.8104ZM86.8868 82.4703C87.4502 80.7801 88.7765 79.4538 90.4667 78.8904L89.8701 77.1004C87.6165 77.8516 85.848 79.62 85.0968 81.8737L86.8868 82.4703ZM80.9369 78.8904C82.6271 79.4538 83.9534 80.7801 84.5168 82.4703L86.3068 81.8737C85.5556 79.62 83.7871 77.8516 81.5335 77.1004L80.9369 78.8904ZM81.5335 78.3103C83.7871 77.5591 85.5556 75.7907 86.3068 73.5371L84.5168 72.9404C83.9534 74.6307 82.6271 75.957 80.9369 76.5204L81.5335 78.3103ZM85.0968 73.5371C85.848 75.7907 87.6165 77.5591 89.8701 78.3103L90.4667 76.5204C88.7765 75.957 87.4502 74.6307 86.8868 72.9404L85.0968 73.5371ZM16.2646 28.0851L16.5546 28.9551L18.3446 28.3584L18.0546 27.4884L16.2646 28.0851ZM22.7946 32.2284L21.9245 31.9384L21.3278 33.7283L22.1979 34.0184L22.7946 32.2284ZM11.5246 34.0184L12.3946 34.3084L12.9913 32.5184L12.1212 32.2284L11.5246 34.0184ZM18.0546 38.1617L17.7645 37.2917L15.9746 37.8883L16.2646 38.7584L18.0546 38.1617ZM12.1212 34.0184L12.9913 33.7283L12.3946 31.9384L11.5246 32.2284L12.1212 34.0184ZM16.2646 27.4884L15.9746 28.3584L17.7645 28.9551L18.0546 28.0851L16.2646 27.4884ZM18.0546 38.7584L18.3446 37.8883L16.5546 37.2917L16.2646 38.1617L18.0546 38.7584ZM22.1979 32.2284L21.3278 32.5184L21.9245 34.3084L22.7946 34.0184L22.1979 32.2284ZM18.3446 37.8883C18.908 36.1981 20.2343 34.8718 21.9245 34.3084L21.3278 32.5184C19.0742 33.2696 17.3058 35.038 16.5546 37.2917L18.3446 37.8883ZM12.3946 34.3084C14.0848 34.8718 15.4112 36.1981 15.9746 37.8883L17.7645 37.2917C17.0133 35.038 15.2449 33.2696 12.9913 32.5184L12.3946 34.3084ZM12.9913 33.7283C15.2449 32.9771 17.0133 31.2087 17.7645 28.9551L15.9746 28.3584C15.4112 30.0487 14.0848 31.375 12.3946 31.9384L12.9913 33.7283ZM16.5546 28.9551C17.3058 31.2087 19.0742 32.9771 21.3279 33.7283L21.9245 31.9384C20.2343 31.375 18.908 30.0487 18.3446 28.3584L16.5546 28.9551ZM31.0011 21.6705L31.0011 21.6705L29.6669 20.3363C28.9301 21.0731 28.9301 22.2678 29.6669 23.0046L31.0011 21.6705ZM31.0011 21.6705L31.0011 21.6705L29.6669 23.0046C30.4037 23.7415 31.5984 23.7415 32.3352 23.0046L31.0011 21.6705ZM31.0011 21.6705L31.0011 21.6705L32.3352 23.0046C33.0721 22.2678 33.0721 21.0731 32.3352 20.3363L31.0011 21.6705ZM32.3352 20.3363C31.5984 19.5995 30.4037 19.5995 29.6669 20.3363L31.0011 21.6705L31.0011 21.6705L32.3352 20.3363ZM80.8395 92.8809L80.8395 92.8809L79.5053 91.5467C78.7685 92.2836 78.7685 93.4782 79.5053 94.215L80.8395 92.8809ZM80.8395 92.8809L80.8395 92.8809L79.5053 94.215C80.2422 94.9519 81.4368 94.9519 82.1737 94.215L80.8395 92.8809ZM80.8395 92.8809V92.8809L82.1737 94.215C82.9105 93.4782 82.9105 92.2835 82.1737 91.5467L80.8395 92.8809ZM82.1737 91.5467C81.4368 90.8099 80.2422 90.8099 79.5053 91.5467L80.8395 92.8809H80.8395L82.1737 91.5467ZM36.0042 62.696L47.3446 74.0364L48.6787 72.7023L37.3383 61.3619L36.0042 62.696Z" fill="#8EA2C7"/>
</svg>
