<svg width="108" height="108" viewBox="0 0 108 108" fill="none" xmlns="http://www.w3.org/2000/svg">
<path d="M60.8762 7.52977C61.3615 7.79339 61.9686 7.61369 62.2322 7.12838C62.4959 6.64308 62.3162 6.03595 61.8308 5.77233L60.8762 7.52977ZM15.3795 33.1509L16.3388 33.4334L16.3388 33.4334L15.3795 33.1509ZM13.2831 37.9763L14.1219 38.5208L14.1219 38.5208L13.2831 37.9763ZM13.2728 41.3489L14.0378 40.7048L14.0378 40.7048L13.2728 41.3489ZM15.6482 44.17L14.8833 44.8141L14.8833 44.8141L15.6482 44.17ZM16.0069 47.3638L16.8851 47.842L16.8851 47.842L16.0069 47.3638ZM6.51517 61.586L7.28127 62.2287L7.28128 62.2287L6.51517 61.586ZM7.02116 64.8147L7.52428 63.9505L7.52428 63.9505L7.02116 64.8147ZM11.7316 67.557L12.2347 66.6928L12.2347 66.6928L11.7316 67.557ZM12.5145 70.1753L13.407 70.6263L13.407 70.6263L12.5145 70.1753ZM10.7496 73.6687L9.85705 73.2177L9.85705 73.2177L10.7496 73.6687ZM11.1411 74.9779L11.6442 74.1136L11.6442 74.1136L11.1411 74.9779ZM13.7487 76.4956L13.2456 77.3599L13.2456 77.3599L13.7487 76.4956ZM13.9509 78.0647L13.2475 77.354L13.2475 77.354L13.9509 78.0647ZM12.3689 79.6305L13.0723 80.3412L13.0723 80.3412L12.3689 79.6305ZM12.6652 81.248L13.0755 80.336L13.0755 80.336L12.6652 81.248ZM15.5418 82.542L15.952 81.63L15.952 81.63L15.5418 82.542ZM18.1525 92.8964L18.7625 92.104L18.7625 92.104L18.1525 92.8964ZM18.2608 92.9798L18.8708 92.1874L18.8707 92.1874L18.2608 92.9798ZM52.9385 80.2922L51.9583 80.0941L51.9583 80.0941L52.9385 80.2922ZM54.2504 78.8489C54.3598 78.3076 54.0096 77.7801 53.4683 77.6707C52.9269 77.5613 52.3994 77.9114 52.29 78.4528L54.2504 78.8489ZM23.028 93.7535L22.7014 92.8083L22.7014 92.8083L23.028 93.7535ZM48.9924 84.78L48.6658 83.8349L48.6658 83.8349L48.9924 84.78ZM45.9115 103L45.9031 102L45.8997 102L45.9115 103ZM85.3145 102.672L85.3229 103.672L85.3263 103.672L85.3145 102.672ZM86.2086 101.118L85.3399 101.614L85.3399 101.614L86.2086 101.118ZM79.541 78.6508L80.5364 78.7466L80.5364 78.7466L79.541 78.6508ZM86.0278 61.2539L86.814 61.8718L86.814 61.8718L86.0278 61.2539ZM86.1087 61.1509L86.895 61.7688L86.895 61.7688L86.1087 61.1509ZM94.6766 47.7937C94.7555 47.2471 94.3763 46.74 93.8297 46.6611C93.2831 46.5822 92.776 46.9614 92.6971 47.508L94.6766 47.7937ZM39.1508 92.2891L39.8964 91.6227L39.8964 91.6227L39.1508 92.2891ZM43.5897 99.9087L44.5374 99.5895L44.5374 99.5895L43.5897 99.9087ZM44.2152 101.766L45.1629 101.447L45.1629 101.447L44.2152 101.766ZM60.7926 19.5911L61.2886 20.4593C61.5145 20.3303 61.6812 20.1183 61.7533 19.8684L60.7926 19.5911ZM62.8384 12.5045V11.5045C62.3929 11.5045 62.0012 11.7991 61.8776 12.2271L62.8384 12.5045ZM67.953 12.5045L68.9137 12.2271C68.7902 11.7991 68.3984 11.5045 67.953 11.5045V12.5045ZM69.9988 19.5911L69.0381 19.8684C69.1102 20.1183 69.2769 20.3303 69.5027 20.4593L69.9988 19.5911ZM74.4282 22.1219L73.9321 22.9901C74.2344 23.1629 74.6048 23.1659 74.91 22.9982L74.4282 22.1219ZM80.938 28.5646L80.066 28.0751C79.8924 28.3842 79.8956 28.7622 80.0742 29.0684L80.938 28.5646ZM84.5545 22.1219L85.4266 22.6114C85.6468 22.2189 85.5779 21.7277 85.258 21.4111L84.5545 22.1219ZM80.938 18.5426L81.6414 17.8319C81.3266 17.5203 80.8443 17.4529 80.4562 17.6663L80.938 18.5426ZM56.3628 22.1219L55.881 22.9982C56.1861 23.1659 56.5565 23.1629 56.8588 22.9902L56.3628 22.1219ZM49.853 28.5646L50.7167 29.0685C50.8954 28.7623 50.8985 28.3843 50.725 28.0751L49.853 28.5646ZM46.2364 22.1219L45.533 21.4111C45.2131 21.7277 45.1441 22.2189 45.3644 22.6114L46.2364 22.1219ZM49.853 18.5426L50.3348 17.6663C49.9466 17.4529 49.4643 17.5203 49.1495 17.8319L49.853 18.5426ZM47.2952 42.0596L48.159 41.5557C48.0285 41.3321 47.8164 41.1678 47.5673 41.0973L47.2952 42.0596ZM40.1348 40.0348H39.1348C39.1348 40.4823 39.4321 40.8753 39.8627 40.9971L40.1348 40.0348ZM40.1348 34.973L39.8627 34.0107C39.4321 34.1325 39.1348 34.5255 39.1348 34.973H40.1348ZM47.2952 32.9483L47.5673 33.9105C47.8164 33.8401 48.0284 33.6758 48.1589 33.4522L47.2952 32.9483ZM49.8524 46.4437L50.7244 46.9332C50.8979 46.624 50.8948 46.2461 50.7162 45.9399L49.8524 46.4437ZM56.3622 52.8864L56.8583 52.0181C56.5559 51.8454 56.1855 51.8423 55.8804 52.0101L56.3622 52.8864ZM49.8524 56.4657L49.1489 57.1764C49.4638 57.488 49.946 57.5553 50.3342 57.3419L49.8524 56.4657ZM46.2358 52.8864L45.3638 52.3969C45.1435 52.7893 45.2125 53.2806 45.5324 53.5971L46.2358 52.8864ZM83.4952 42.0596L83.2231 41.0973C82.9739 41.1678 82.7618 41.3321 82.6314 41.5557L83.4952 42.0596ZM90.6556 40.0348L90.9277 40.9971C91.3583 40.8753 91.6556 40.4823 91.6556 40.0348H90.6556ZM90.6556 34.973H91.6556C91.6556 34.5255 91.3583 34.1325 90.9277 34.0107L90.6556 34.973ZM83.4952 32.9483L82.6314 33.4521C82.7619 33.6758 82.974 33.8401 83.2231 33.9105L83.4952 32.9483ZM80.938 46.4437L80.0742 45.9399C79.8956 46.2461 79.8924 46.624 80.066 46.9332L80.938 46.4437ZM74.4282 52.8864L74.91 52.0101C74.6049 51.8423 74.2345 51.8454 73.9321 52.0181L74.4282 52.8864ZM80.938 56.4657L80.4562 57.3419C80.8443 57.5553 81.3266 57.488 81.6414 57.1764L80.938 56.4657ZM84.5545 52.8864L85.258 53.5971C85.5779 53.2806 85.6468 52.7893 85.4266 52.3969L84.5545 52.8864ZM60.792 55.4172L61.7527 55.1398C61.6806 54.8899 61.5139 54.678 61.288 54.5489L60.792 55.4172ZM62.8378 62.5038L61.877 62.7812C62.0006 63.2091 62.3923 63.5038 62.8378 63.5038V62.5038ZM67.9524 62.5038V63.5038C68.3979 63.5038 68.7896 63.2091 68.9132 62.7812L67.9524 62.5038ZM69.9982 55.4172L69.5022 54.5489C69.2763 54.678 69.1096 54.8899 69.0375 55.1398L69.9982 55.4172ZM79.9037 11.9852L80.3998 12.8535C80.6256 12.7245 80.7923 12.5125 80.8645 12.2626L79.9037 11.9852ZM81.486 6.50439V5.50439C81.0405 5.50439 80.6488 5.79905 80.5252 6.22703L81.486 6.50439ZM85.4416 6.50439L86.4024 6.22703C86.2788 5.79905 85.8871 5.50439 85.4416 5.50439V6.50439ZM87.0239 11.9852L86.0631 12.2626C86.1353 12.5125 86.3019 12.7244 86.5278 12.8535L87.0239 11.9852ZM90.4496 13.9426L89.9535 14.8108C90.2558 14.9836 90.6263 14.9866 90.9314 14.8189L90.4496 13.9426ZM95.4843 18.9254L94.6123 18.4359C94.4388 18.7451 94.4419 19.123 94.6206 19.4293L95.4843 18.9254ZM98.2814 13.9426L99.1534 14.4321C99.3737 14.0396 99.3047 13.5484 98.9848 13.2318L98.2814 13.9426ZM95.4843 11.1743L96.1878 10.4636C95.8729 10.152 95.3907 10.0847 95.0025 10.2981L95.4843 11.1743ZM76.4777 13.9426L75.9959 14.8189C76.301 14.9866 76.6714 14.9836 76.9737 14.8109L76.4777 13.9426ZM67.9424 13.2318C67.5499 13.6203 67.5466 14.2535 67.9351 14.646C68.3236 15.0386 68.9567 15.0418 69.3493 14.6533L67.9424 13.2318ZM71.4429 11.1743L71.9247 10.2981C71.5366 10.0847 71.0543 10.152 70.7395 10.4636L71.4429 11.1743ZM97.4621 29.3626L97.19 28.4003C96.9408 28.4707 96.7287 28.6351 96.5983 28.8587L97.4621 29.3626ZM103 27.7966L103.272 28.7589C103.703 28.6371 104 28.2441 104 27.7966H103ZM103 23.8817H104C104 23.4342 103.703 23.0412 103.272 22.9195L103 23.8817ZM97.4621 22.3158L96.5983 22.8197C96.7288 23.0433 96.9408 23.2076 97.19 23.2781L97.4621 22.3158ZM95.4843 32.7533L94.6205 32.2494C94.4419 32.5557 94.4388 32.9336 94.6123 33.2428L95.4843 32.7533ZM90.9314 36.8598C90.4474 36.5937 89.8394 36.7703 89.5733 37.2543C89.3072 37.7382 89.4838 38.3463 89.9678 38.6124L90.9314 36.8598ZM95.4843 40.5043L95.0025 41.3806C95.3907 41.594 95.8729 41.5267 96.1878 41.2151L95.4843 40.5043ZM98.2814 37.7361L98.9848 38.4468C99.3047 38.1303 99.3737 37.639 99.1534 37.2466L98.2814 37.7361ZM79.4513 18.0608C78.9588 18.3107 78.762 18.9125 79.0119 19.405C79.2617 19.8976 79.8636 20.0943 80.3561 19.8445L79.4513 18.0608ZM85.6698 32.2131C85.1466 32.3899 84.8658 32.9574 85.0426 33.4806C85.2194 34.0038 85.7869 34.2846 86.3101 34.1078L85.6698 32.2131ZM61.8308 5.77233C61.2702 5.46775 60.4227 5.29338 59.4991 5.18262C58.533 5.06676 57.3397 5.00605 55.9898 5.00043C53.2877 4.98917 49.8963 5.19853 46.322 5.65922C39.2279 6.57359 31.186 8.50608 26.4266 11.8313L27.5721 13.4708C31.9064 10.4425 39.526 8.55172 46.5777 7.64281C50.0764 7.19186 53.3789 6.98957 55.9815 7.00041C57.284 7.00584 58.3957 7.06462 59.261 7.16839C60.1688 7.27727 60.6791 7.42269 60.8762 7.52977L61.8308 5.77233ZM26.4266 11.8313C16.974 18.4355 15.886 27.8912 14.4203 32.8684L16.3388 33.4334C17.9043 28.1175 18.8372 19.5735 27.5721 13.4708L26.4266 11.8313ZM14.4203 32.8684C13.7717 35.0706 13.0374 36.5181 12.4442 37.4319L14.1219 38.5208C14.8308 37.4284 15.6415 35.8013 16.3388 33.4334L14.4203 32.8684ZM12.5079 41.993L14.8833 44.8141L16.4132 43.5259L14.0378 40.7048L12.5079 41.993ZM15.1287 46.8855C12.9895 50.8137 9.02775 57.0351 5.74906 60.9433L7.28128 62.2287C10.6715 58.1876 14.7051 51.8451 16.8851 47.842L15.1287 46.8855ZM6.51803 65.679L11.2285 68.4213L12.2347 66.6928L7.52428 63.9505L6.51803 65.679ZM11.6219 69.7244L9.85705 73.2177L11.6422 74.1196L13.407 70.6263L11.6219 69.7244ZM10.6381 75.8421L13.2456 77.3599L14.2518 75.6314L11.6442 74.1136L10.6381 75.8421ZM13.2475 77.354L11.6654 78.9197L13.0723 80.3412L14.6544 78.7755L13.2475 77.354ZM12.255 82.1599L15.1315 83.454L15.952 81.63L13.0755 80.336L12.255 82.1599ZM15.7187 84.4855L15.249 88.2042L17.2332 88.4548L17.7029 84.7361L15.7187 84.4855ZM17.5425 93.6888L17.6508 93.7722L18.8707 92.1874L18.7625 92.104L17.5425 93.6888ZM53.9187 80.4903L54.2504 78.8489L52.29 78.4528L51.9583 80.0941L53.9187 80.4903ZM23.3547 94.6986L36.6723 90.096L36.019 88.2057L22.7014 92.8083L23.3547 94.6986ZM36.6723 90.096L49.3191 85.7252L48.6658 83.8349L36.019 88.2057L36.6723 90.096ZM45.9198 104L85.3229 103.672L85.3062 101.672L45.9031 102L45.9198 104ZM87.0773 100.623C86.0017 98.7364 84.1624 95.2648 82.6938 91.2439C81.2183 87.2042 80.155 82.7107 80.5364 78.7466L78.5456 78.5551C78.1219 82.9584 79.3012 87.7848 80.8152 91.93C82.3361 96.0941 84.2332 99.6725 85.3399 101.614L87.0773 100.623ZM80.5364 78.7466C81.0332 73.5839 81.7697 70.4582 82.7732 68.1C83.7747 65.7464 85.0635 64.0989 86.814 61.8718L85.2415 60.6359C83.5056 62.8445 82.0525 64.6857 80.9328 67.3169C79.8152 69.9433 79.0515 73.2982 78.5456 78.5551L80.5364 78.7466ZM86.814 61.8718L86.895 61.7688L85.3225 60.5329L85.2415 60.6359L86.814 61.8718ZM86.895 61.7688C88.6825 59.4942 90.4791 56.9559 91.8977 54.5308C93.2999 52.1337 94.395 49.7445 94.6766 47.7937L92.6971 47.508C92.4735 49.0572 91.5477 51.1681 90.1713 53.5209C88.8113 55.8459 87.0714 58.3075 85.3225 60.533L86.895 61.7688ZM35.6001 89.8172L38.4052 92.9556L39.8964 91.6227L37.0913 88.4844L35.6001 89.8172ZM42.642 100.228L43.2675 102.085L45.1629 101.447L44.5374 99.5895L42.642 100.228ZM38.4052 92.9555C40.2982 95.0733 41.739 97.5469 42.642 100.228L44.5374 99.5895C43.5477 96.6512 41.969 93.9415 39.8964 91.6227L38.4052 92.9555ZM85.3263 103.672C86.8772 103.654 87.8434 101.967 87.0773 100.623L85.3399 101.614C85.343 101.619 85.3437 101.622 85.3437 101.622C85.3438 101.622 85.344 101.623 85.3439 101.625C85.3439 101.628 85.3424 101.638 85.3358 101.649C85.3292 101.661 85.3218 101.667 85.3183 101.669C85.3168 101.67 85.3158 101.67 85.3147 101.671C85.3139 101.671 85.3103 101.672 85.3027 101.672L85.3263 103.672ZM45.8997 102C45.6258 102.003 45.4987 101.941 45.4325 101.892C45.3613 101.839 45.2563 101.724 45.1629 101.447L43.2675 102.085C43.452 102.633 43.7558 103.14 44.2436 103.5C44.7365 103.865 45.3185 104.007 45.9232 104L45.8997 102ZM51.9583 80.0941C51.6086 81.8246 50.3595 83.2495 48.6658 83.8349L49.3191 85.7252C51.675 84.911 53.4271 82.9227 53.9187 80.4903L51.9583 80.0941ZM17.6508 93.7722C19.2718 95.02 21.419 95.3676 23.3547 94.6986L22.7014 92.8083C21.3996 93.2583 19.9567 93.0233 18.8708 92.1874L17.6508 93.7722ZM15.249 88.2042C14.9832 90.3083 15.8574 92.3917 17.5425 93.6888L18.7625 92.104C17.6353 91.2364 17.0571 89.8494 17.2332 88.4548L15.249 88.2042ZM15.1315 83.454C15.5405 83.6379 15.7726 84.0582 15.7187 84.4855L17.7029 84.7361C17.8683 83.4264 17.1532 82.1704 15.952 81.63L15.1315 83.454ZM11.6654 78.9197C10.6634 79.9114 10.9778 81.5854 12.255 82.1599L13.0755 80.336C13.071 80.3339 13.0696 80.3327 13.0701 80.3331C13.0705 80.3335 13.0713 80.3342 13.072 80.3351C13.0733 80.3368 13.073 80.3371 13.0728 80.3358C13.0725 80.3345 13.0731 80.3354 13.072 80.3389C13.0715 80.3407 13.0707 80.3424 13.07 80.3437C13.0692 80.345 13.0694 80.3441 13.0723 80.3412L11.6654 78.9197ZM13.2456 77.3599C13.2489 77.3618 13.2498 77.3628 13.2494 77.3624C13.249 77.3621 13.2484 77.3614 13.2478 77.3605C13.2468 77.3588 13.2469 77.3583 13.247 77.3589C13.247 77.3596 13.2467 77.3585 13.2476 77.3558C13.2481 77.3543 13.2488 77.353 13.2494 77.3521C13.25 77.351 13.2498 77.3517 13.2475 77.354L14.6544 78.7755C15.5922 77.8474 15.3873 76.2923 14.2517 75.6314L13.2456 77.3599ZM9.85705 73.2177C9.37856 74.1649 9.72681 75.3117 10.6381 75.8421L11.6442 74.1136C11.6414 74.112 11.6414 74.1115 11.6421 74.1123C11.6424 74.1127 11.6425 74.113 11.6426 74.1132C11.6426 74.1134 11.6429 74.1144 11.6427 74.1164C11.6426 74.1174 11.6425 74.1184 11.6422 74.1192C11.642 74.1201 11.6418 74.1203 11.6422 74.1196L9.85705 73.2177ZM11.2285 68.4213C11.6913 68.6907 11.8564 69.2604 11.6219 69.7244L13.407 70.6263C14.1231 69.2088 13.6039 67.4899 12.2347 66.6928L11.2285 68.4213ZM5.74906 60.9433C4.53837 62.3864 4.79988 64.6787 6.51803 65.679L7.52428 63.9505C6.96356 63.6241 6.80304 62.7987 7.28127 62.2287L5.74906 60.9433ZM14.8833 44.8141C15.3943 45.421 15.4826 46.2357 15.1287 46.8855L16.8851 47.842C17.6572 46.4243 17.4214 44.7233 16.4132 43.5259L14.8833 44.8141ZM12.4442 37.4319C11.6455 38.6626 11.3678 40.639 12.5079 41.993L14.0378 40.7048C13.647 40.2407 13.6282 39.2814 14.1219 38.5208L12.4442 37.4319ZM61.7533 19.8684L63.7992 12.7818L61.8776 12.2271L59.8318 19.3137L61.7533 19.8684ZM62.8384 13.5045H67.953V11.5045H62.8384V13.5045ZM66.9922 12.7818L69.0381 19.8684L70.9596 19.3137L68.9137 12.2271L66.9922 12.7818ZM69.5027 20.4593L73.9321 22.9901L74.9243 21.2536L70.4949 18.7228L69.5027 20.4593ZM81.81 29.0541L85.4266 22.6114L83.6825 21.6324L80.066 28.0751L81.81 29.0541ZM85.258 21.4111L81.6414 17.8319L80.2346 19.2534L83.8511 22.8326L85.258 21.4111ZM80.4562 17.6663L73.9464 21.2456L74.91 22.9982L81.4198 19.4189L80.4562 17.6663ZM60.2965 18.7228L55.8667 21.2536L56.8588 22.9902L61.2886 20.4593L60.2965 18.7228ZM50.725 28.0751L47.1084 21.6324L45.3644 22.6114L48.981 29.0541L50.725 28.0751ZM46.9398 22.8326L50.5564 19.2534L49.1495 17.8319L45.533 21.4111L46.9398 22.8326ZM49.3712 19.4189L55.881 22.9982L56.8446 21.2456L50.3348 17.6663L49.3712 19.4189ZM47.5673 41.0973L40.4069 39.0726L39.8627 40.9971L47.0231 43.0218L47.5673 41.0973ZM41.1348 40.0348V34.973H39.1348V40.0348H41.1348ZM40.4069 35.9353L47.5673 33.9105L47.0231 31.986L39.8627 34.0107L40.4069 35.9353ZM48.1589 33.4522L50.7167 29.0685L48.9892 28.0606L46.4315 32.4443L48.1589 33.4522ZM46.4314 42.5634L48.9886 46.9475L50.7162 45.9399L48.159 41.5557L46.4314 42.5634ZM55.8804 52.0101L49.3706 55.5894L50.3342 57.3419L56.844 53.7627L55.8804 52.0101ZM50.5558 55.7549L46.9393 52.1756L45.5324 53.5971L49.1489 57.1764L50.5558 55.7549ZM47.1078 53.3759L50.7244 46.9332L48.9804 45.9542L45.3638 52.3969L47.1078 53.3759ZM83.7673 43.0218L90.9277 40.9971L90.3835 39.0726L83.2231 41.0973L83.7673 43.0218ZM91.6556 40.0348V34.973H89.6556V40.0348H91.6556ZM90.9277 34.0107L83.7673 31.986L83.2231 33.9105L90.3835 35.9353L90.9277 34.0107ZM84.359 32.4444L81.8018 28.0607L80.0742 29.0684L82.6314 33.4521L84.359 32.4444ZM82.6314 41.5557L80.0742 45.9399L81.8018 46.9475L84.359 42.5634L82.6314 41.5557ZM73.9464 53.7627L80.4562 57.3419L81.4198 55.5894L74.91 52.0101L73.9464 53.7627ZM81.6414 57.1764L85.258 53.5971L83.8511 52.1756L80.2346 55.7549L81.6414 57.1764ZM85.4266 52.3969L81.81 45.9542L80.066 46.9332L83.6825 53.3759L85.4266 52.3969ZM59.8312 55.6946L61.877 62.7812L63.7986 62.2264L61.7527 55.1398L59.8312 55.6946ZM62.8378 63.5038H67.9524V61.5038H62.8378V63.5038ZM68.9132 62.7812L70.959 55.6946L69.0375 55.1398L66.9916 62.2264L68.9132 62.7812ZM70.4943 56.2855L74.9242 53.7547L73.9321 52.0181L69.5022 54.5489L70.4943 56.2855ZM61.288 54.5489L56.8583 52.0181L55.8661 53.7547L60.2959 56.2855L61.288 54.5489ZM65.3952 37.5044C65.3924 37.5044 65.3908 37.5042 65.39 37.504C65.3892 37.5038 65.3886 37.5036 65.388 37.5034C65.3868 37.5029 65.3854 37.502 65.3841 37.5008C65.3829 37.4996 65.3831 37.4992 65.3837 37.5007C65.384 37.5014 65.3844 37.5024 65.3846 37.5035C65.3848 37.5046 65.3848 37.505 65.3848 37.5044H63.3848C63.3848 38.6187 64.2947 39.5044 65.3952 39.5044V37.5044ZM65.4056 37.5044C65.4056 37.505 65.4056 37.5046 65.4058 37.5035C65.406 37.5024 65.4063 37.5014 65.4067 37.5007C65.4073 37.4992 65.4074 37.4996 65.4062 37.5008C65.405 37.502 65.4036 37.5029 65.4023 37.5034C65.4018 37.5036 65.4012 37.5038 65.4003 37.504C65.3995 37.5042 65.3979 37.5044 65.3952 37.5044V39.5044C66.4957 39.5044 67.4056 38.6187 67.4056 37.5044H65.4056ZM65.3952 37.5044C65.3979 37.5044 65.3995 37.5047 65.4003 37.5048C65.4012 37.505 65.4018 37.5052 65.4023 37.5054C65.4036 37.506 65.405 37.5069 65.4062 37.5081C65.4074 37.5093 65.4073 37.5096 65.4067 37.5082C65.4063 37.5074 65.406 37.5064 65.4058 37.5054C65.4056 37.5043 65.4056 37.5038 65.4056 37.5044H67.4056C67.4056 36.3901 66.4957 35.5044 65.3952 35.5044V37.5044ZM65.3952 35.5044C64.2947 35.5044 63.3848 36.3901 63.3848 37.5044H65.3848C65.3848 37.5038 65.3848 37.5043 65.3846 37.5054C65.3844 37.5064 65.384 37.5074 65.3837 37.5082C65.3831 37.5096 65.3829 37.5093 65.3841 37.5081C65.3854 37.5069 65.3868 37.506 65.388 37.5054C65.3886 37.5052 65.3892 37.505 65.39 37.5048C65.3908 37.5047 65.3924 37.5044 65.3952 37.5044V35.5044ZM65.3952 46.5044C60.3573 46.5044 56.291 42.4652 56.291 37.5044H54.291C54.291 43.5893 59.2723 48.5044 65.3952 48.5044V46.5044ZM74.4993 37.5044C74.4993 42.4652 70.4331 46.5044 65.3952 46.5044V48.5044C71.518 48.5044 76.4993 43.5893 76.4993 37.5044H74.4993ZM65.3952 28.5044C70.4331 28.5044 74.4993 32.5436 74.4993 37.5044H76.4993C76.4993 31.4196 71.518 26.5044 65.3952 26.5044V28.5044ZM65.3952 26.5044C59.2723 26.5044 54.291 31.4195 54.291 37.5044H56.291C56.291 32.5436 60.3573 28.5044 65.3952 28.5044V26.5044ZM80.8645 12.2626L82.4467 6.78176L80.5252 6.22703L78.9429 11.7079L80.8645 12.2626ZM81.486 7.50439H85.4416V5.50439H81.486V7.50439ZM84.4809 6.78176L86.0631 12.2626L87.9847 11.7079L86.4024 6.22703L84.4809 6.78176ZM86.5278 12.8535L89.9535 14.8108L90.9457 13.0743L87.52 11.117L86.5278 12.8535ZM96.3563 19.4149L99.1534 14.4321L97.4094 13.4531L94.6123 18.4359L96.3563 19.4149ZM98.9848 13.2318L96.1878 10.4636L94.7809 11.8851L97.578 14.6533L98.9848 13.2318ZM95.0025 10.2981L89.9678 13.0663L90.9314 14.8189L95.9661 12.0506L95.0025 10.2981ZM79.4076 11.1169L75.9816 13.0743L76.9737 14.8109L80.3998 12.8535L79.4076 11.1169ZM69.3493 14.6533L72.1464 11.8851L70.7395 10.4636L67.9424 13.2318L69.3493 14.6533ZM70.9611 12.0506L75.9959 14.8189L76.9595 13.0663L71.9247 10.2981L70.9611 12.0506ZM97.7342 30.3248L103.272 28.7589L102.728 26.8343L97.19 28.4003L97.7342 30.3248ZM104 27.7966V23.8817H102V27.7966H104ZM103.272 22.9195L97.7342 21.3535L97.19 23.2781L102.728 24.844L103.272 22.9195ZM98.3259 21.8119L96.3481 18.4215L94.6206 19.4293L96.5983 22.8197L98.3259 21.8119ZM96.5983 28.8587L94.6205 32.2494L96.3481 33.2571L98.3259 29.8664L96.5983 28.8587ZM89.9678 38.6124L95.0025 41.3806L95.9661 39.628L90.9314 36.8598L89.9678 38.6124ZM96.1878 41.2151L98.9848 38.4468L97.578 37.0253L94.7809 39.7936L96.1878 41.2151ZM99.1534 37.2466L96.3563 32.2638L94.6123 33.2428L97.4094 38.2256L99.1534 37.2466ZM83.4634 19.1055C87.2368 19.1055 90.278 22.1302 90.278 25.8396H92.278C92.278 21.0061 88.3218 17.1055 83.4634 17.1055V19.1055ZM80.3561 19.8445C81.2864 19.3725 82.3418 19.1055 83.4634 19.1055V17.1055C82.0208 17.1055 80.6561 17.4496 79.4513 18.0608L80.3561 19.8445ZM90.278 25.8396C90.278 28.7886 88.3572 31.3049 85.6698 32.2131L86.3101 34.1078C89.7748 32.9369 92.278 29.6832 92.278 25.8396H90.278Z" fill="#8EA2C7"/>
</svg>
