<svg width="108" height="108" viewBox="0 0 108 108" fill="none" xmlns="http://www.w3.org/2000/svg">
<path d="M14.596 56.5252C14.596 57.0831 15.0482 57.5354 15.6061 57.5354C16.1639 57.5354 16.6162 57.0831 16.6162 56.5252H14.596ZM15.6061 9.0505H16.6162C16.6162 8.49264 16.1639 8.0404 15.6061 8.0404V9.0505ZM52.4747 104L51.7605 103.286C51.4716 103.575 51.3852 104.009 51.5415 104.387C51.6979 104.764 52.0662 105.01 52.4747 105.01V104ZM103 104V105.01C103.558 105.01 104.01 104.558 104.01 104H103ZM103 53H104.01C104.01 52.5845 103.756 52.2115 103.369 52.0597C102.982 51.9079 102.542 52.0085 102.259 52.3131L103 53ZM73.9827 81.0635C73.5882 81.458 73.5882 82.0976 73.9827 82.492C74.3772 82.8865 75.0167 82.8865 75.4112 82.492L73.9827 81.0635ZM71.3708 86.5324C71.7653 86.138 71.7653 85.4984 71.3708 85.1039C70.9763 84.7095 70.3368 84.7095 69.9423 85.1039L71.3708 86.5324ZM77.7273 91.8788L77.013 91.1645C76.7241 91.4534 76.6377 91.8879 76.7941 92.2653C76.9504 92.6428 77.3187 92.8889 77.7273 92.8889V91.8788ZM92.8788 76.7273H93.8889C93.8889 76.3187 93.6428 75.9504 93.2653 75.7941C92.8879 75.6377 92.4534 75.7241 92.1645 76.013L92.8788 76.7273ZM92.8788 91.8788V92.8889C93.4366 92.8889 93.8889 92.4366 93.8889 91.8788H92.8788ZM99.4444 69.6566C98.8866 69.6566 98.4343 70.1088 98.4343 70.6667C98.4343 71.2245 98.8866 71.6768 99.4444 71.6768V69.6566ZM99.4444 77.7374C98.8866 77.7374 98.4343 78.1896 98.4343 78.7475C98.4343 79.3053 98.8866 79.7576 99.4444 79.7576V77.7374ZM99.4444 85.8182C98.8866 85.8182 98.4343 86.2704 98.4343 86.8283C98.4343 87.3861 98.8866 87.8384 99.4444 87.8384V85.8182ZM103 94.9091V95.9192C103.558 95.9192 104.01 95.467 104.01 94.9091H103ZM99.4444 93.899C98.8866 93.899 98.4343 94.3512 98.4343 94.9091C98.4343 95.467 98.8866 95.9192 99.4444 95.9192V93.899ZM96.9192 59.5556L97.6334 60.2698C97.6424 60.2609 97.6512 60.2518 97.6598 60.2425L96.9192 59.5556ZM96.9192 26.2222H97.9293C97.9293 25.6644 97.4771 25.2121 96.9192 25.2121V26.2222ZM81.7677 26.2222L81.0534 25.508L81.0534 25.508L81.7677 26.2222ZM52.2655 36.114C51.8711 36.5085 51.8711 37.1481 52.2655 37.5425C52.66 37.937 53.2996 37.937 53.694 37.5425L52.2655 36.114ZM49.1486 42.088C49.5431 41.6935 49.5431 41.054 49.1486 40.6595C48.7541 40.265 48.1146 40.265 47.7201 40.6595L49.1486 42.088ZM41.8687 47.9394L41.1544 47.2251C41.0534 47.3262 40.9749 47.4475 40.9242 47.5812L41.8687 47.9394ZM50.9596 57.0303L51.3178 57.9747C51.4514 57.9241 51.5728 57.8456 51.6738 57.7445L50.9596 57.0303ZM46.4141 52.4848L45.6999 53.1991L45.6999 53.1991L46.4141 52.4848ZM36.3131 62.5859L35.3687 62.2276C35.2277 62.5993 35.3178 63.019 35.5989 63.3001C35.8799 63.5812 36.2997 63.6713 36.6714 63.5303L36.3131 62.5859ZM30.2525 62.5859C29.6947 62.5859 29.2424 63.0381 29.2424 63.596C29.2424 64.1538 29.6947 64.6061 30.2525 64.6061V62.5859ZM70.6566 64.6061C71.2144 64.6061 71.6667 64.1538 71.6667 63.596C71.6667 63.0381 71.2144 62.5859 70.6566 62.5859V64.6061ZM16.6162 62.0808C16.6162 61.5229 16.1639 61.0707 15.6061 61.0707C15.0482 61.0707 14.596 61.5229 14.596 62.0808H16.6162ZM15.6061 73.1919V74.202C16.1639 74.202 16.6162 73.7498 16.6162 73.1919H15.6061ZM74.697 15.1111L73.9827 14.3969L73.9827 14.3969L74.697 15.1111ZM39.3434 54.5969L38.399 54.2386L38.399 54.2386L39.3434 54.5969ZM44.3021 59.5556L44.6603 60.5L44.6603 60.5L44.3021 59.5556ZM39.3434 55.5151L40.0577 54.8009C39.8101 54.5534 39.4521 54.4516 39.1114 54.5321C38.7706 54.6125 38.4959 54.8636 38.3852 55.1957L39.3434 55.5151ZM37.3232 61.5758L36.365 61.2563C36.244 61.6193 36.3384 62.0195 36.609 62.29C36.8795 62.5605 37.2797 62.655 37.6427 62.534L37.3232 61.5758ZM43.3838 59.5556L43.7033 60.5138C44.0354 60.4031 44.2865 60.1283 44.3669 59.7876C44.4473 59.4469 44.3456 59.0888 44.0981 58.8413L43.3838 59.5556ZM39.3434 56.5252L40.0577 55.811C39.8004 55.5537 39.4245 55.4547 39.0738 55.5518C38.7231 55.6489 38.4518 55.9272 38.3635 56.2803L39.3434 56.5252ZM38.3333 60.5657L37.3534 60.3207C37.2673 60.6649 37.3682 61.029 37.6191 61.2799C37.87 61.5308 38.2341 61.6317 38.5783 61.5456L38.3333 60.5657ZM42.3737 59.5556L42.6187 60.5355C42.9718 60.4472 43.25 60.1759 43.3472 59.8252C43.4443 59.4745 43.3453 59.0986 43.088 58.8413L42.3737 59.5556ZM15.6061 92.8889C16.1639 92.8889 16.6162 92.4366 16.6162 91.8788C16.6162 91.3209 16.1639 90.8687 15.6061 90.8687V92.8889ZM39.3434 57.5354L40.0577 56.8211C39.7688 56.5322 39.3343 56.4458 38.9569 56.6021C38.5794 56.7585 38.3333 57.1268 38.3333 57.5354H39.3434ZM41.3636 59.5556V60.5657C41.7722 60.5657 42.1405 60.3196 42.2968 59.9421C42.4532 59.5647 42.3668 59.1302 42.0779 58.8413L41.3636 59.5556ZM39.3434 59.5556H38.3333C38.3333 60.1134 38.7856 60.5657 39.3434 60.5657V59.5556ZM39.8485 58.5455L40.5627 57.8312C40.2738 57.5423 39.8394 57.4559 39.4619 57.6122C39.0845 57.7686 38.8384 58.1369 38.8384 58.5455H39.8485ZM40.3535 59.0505V60.0606C40.7621 60.0606 41.1304 59.8145 41.2867 59.4371C41.4431 59.0596 41.3567 58.6251 41.0678 58.3363L40.3535 59.0505ZM39.8485 59.0505H38.8384C38.8384 59.6084 39.2906 60.0606 39.8485 60.0606V59.0505ZM87.9508 6.14275L87.2366 6.857L87.9508 6.14275ZM83.6653 6.14275L84.3796 6.857L83.6653 6.14275ZM92.7562 10.9482L93.4705 10.2339L92.7562 10.9482ZM92.7562 15.2337L92.042 14.5194L92.7562 15.2337ZM15.6061 8.0404H15.3461V10.0606H15.6061V8.0404ZM3.9899 19.3966V82.7879H6.0101V19.3966H3.9899ZM14.0909 92.8889H64.596V90.8687H14.0909V92.8889ZM63.8817 91.1645L51.7605 103.286L53.189 104.714L65.3102 92.593L63.8817 91.1645ZM52.4747 105.01H103V102.99H52.4747V105.01ZM65.3102 92.593L71.3708 86.5324L69.9423 85.1039L63.8817 91.1645L65.3102 92.593ZM78.4415 92.593L93.593 77.4415L92.1645 76.013L77.013 91.1645L78.4415 92.593ZM91.8687 76.7273V91.8788H93.8889V76.7273H91.8687ZM92.8788 90.8687H77.7273V92.8889H92.8788V90.8687ZM101.99 53V70.6667H104.01V53H101.99ZM103 69.6566H99.4444V71.6768H103V69.6566ZM101.99 70.6667V78.7475H104.01V70.6667H101.99ZM101.99 78.7475V104H104.01V78.7475H101.99ZM103 77.7374H99.4444V79.7576H103V77.7374ZM101.99 78.7475V86.8283H104.01V78.7475H101.99ZM103 85.8182H99.4444V87.8384H103V85.8182ZM101.99 86.8283V94.9091H104.01V86.8283H101.99ZM103 93.899H99.4444V95.9192H103V93.899ZM75.4112 82.492L97.6334 60.2698L96.2049 58.8413L73.9827 81.0635L75.4112 82.492ZM97.6598 60.2425L103.741 53.6869L102.259 52.3131L96.1786 58.8686L97.6598 60.2425ZM97.9293 59.5556V26.2222H95.9091V59.5556H97.9293ZM96.9192 25.2121H81.7677V27.2323H96.9192V25.2121ZM93.4705 10.2339L88.6651 5.4285L87.2366 6.857L92.042 11.6624L93.4705 10.2339ZM62.8716 25.508L52.2655 36.114L53.694 37.5425L64.3001 26.9365L62.8716 25.508ZM16.6162 56.5252V26.2222H14.596V56.5252H16.6162ZM16.6162 26.2222V9.0505H14.596V26.2222H16.6162ZM63.5859 25.2121H15.6061V27.2323H63.5859V25.2121ZM47.7201 40.6595L41.1544 47.2251L42.5829 48.6536L49.1486 42.088L47.7201 40.6595ZM51.6738 57.7445L82.4819 26.9365L81.0534 25.508L50.2453 56.3161L51.6738 57.7445ZM41.1544 48.6536L45.6999 53.1991L47.1284 51.7706L42.5829 47.2251L41.1544 48.6536ZM45.6999 53.1991L50.2453 57.7445L51.6738 56.3161L47.1284 51.7706L45.6999 53.1991ZM30.2525 64.6061H70.6566V62.5859H30.2525V64.6061ZM14.596 62.0808V73.1919H16.6162V62.0808H14.596ZM89.0476 20.3708L93.4705 15.9479L92.042 14.5194L87.6191 18.9423L89.0476 20.3708ZM82.9511 5.4285L78.5282 9.85141L79.9567 11.2799L84.3796 6.857L82.9511 5.4285ZM89.0476 18.9423L79.9567 9.85141L78.5282 11.2799L87.6191 20.3708L89.0476 18.9423ZM78.5282 9.85141L73.9827 14.3969L75.4112 15.8254L79.9567 11.2799L78.5282 9.85141ZM73.9827 14.3969L62.8716 25.508L64.3001 26.9365L75.4112 15.8254L73.9827 14.3969ZM82.4819 26.9365L84.5021 24.9163L83.0736 23.4878L81.0534 25.508L82.4819 26.9365ZM84.5021 24.9163L89.0476 20.3708L87.6191 18.9423L83.0736 23.4878L84.5021 24.9163ZM73.9827 15.8254L83.0736 24.9163L84.5021 23.4878L75.4112 14.3969L73.9827 15.8254ZM37.2576 62.9441L40.2879 54.9551L38.399 54.2386L35.3687 62.2276L37.2576 62.9441ZM40.2879 54.9551L42.8131 48.2976L40.9242 47.5812L38.399 54.2386L40.2879 54.9551ZM36.6714 63.5303L44.6603 60.5L43.9439 58.6111L35.9549 61.6414L36.6714 63.5303ZM44.6603 60.5L51.3178 57.9747L50.6014 56.0859L43.9439 58.6111L44.6603 60.5ZM38.6292 55.3111L43.5879 60.2698L45.0164 58.8413L40.0577 53.8826L38.6292 55.3111ZM38.3852 55.1957L36.365 61.2563L38.2815 61.8952L40.3017 55.8346L38.3852 55.1957ZM37.6427 62.534L43.7033 60.5138L43.0644 58.5973L37.0038 60.6175L37.6427 62.534ZM44.0981 58.8413L40.0577 54.8009L38.6292 56.2294L42.6696 60.2698L44.0981 58.8413ZM38.3635 56.2803L37.3534 60.3207L39.3133 60.8106L40.3234 56.7702L38.3635 56.2803ZM38.5783 61.5456L42.6187 60.5355L42.1288 58.5756L38.0883 59.5857L38.5783 61.5456ZM43.088 58.8413L40.0577 55.811L38.6292 57.2395L41.6595 60.2698L43.088 58.8413ZM15.6061 72.1818H14.8485V74.202H15.6061V72.1818ZM14.8485 92.8889H15.6061V90.8687H14.8485V92.8889ZM38.6292 58.2496L40.6494 60.2698L42.0779 58.8413L40.0577 56.8211L38.6292 58.2496ZM41.3636 58.5455H39.3434V60.5657H41.3636V58.5455ZM40.3535 59.5556V57.5354H38.3333V59.5556H40.3535ZM39.1342 59.2597L39.6393 59.7648L41.0678 58.3363L40.5627 57.8312L39.1342 59.2597ZM40.3535 58.0404H39.8485V60.0606H40.3535V58.0404ZM40.8586 59.0505V58.5455H38.8384V59.0505H40.8586ZM4.49495 82.5354C4.49495 88.2534 9.13038 92.8889 14.8485 92.8889V90.8687C10.2461 90.8687 6.51515 87.1377 6.51515 82.5354H4.49495ZM14.8485 72.1818C9.13038 72.1818 4.49495 76.8173 4.49495 82.5354H6.51515C6.51515 77.933 10.2461 74.202 14.8485 74.202V72.1818ZM3.9899 82.7879C3.9899 88.3665 8.51227 92.8889 14.0909 92.8889V90.8687C9.628 90.8687 6.0101 87.2508 6.0101 82.7879H3.9899ZM88.6651 5.4285C87.0872 3.85063 84.529 3.85062 82.9511 5.4285L84.3796 6.857C85.1685 6.06806 86.4476 6.06806 87.2366 6.857L88.6651 5.4285ZM92.042 11.6624C92.8309 12.4513 92.8309 13.7305 92.042 14.5194L93.4705 15.9479C95.0484 14.37 95.0484 11.8118 93.4705 10.2339L92.042 11.6624ZM7.31605 11.3666C5.18635 13.4963 3.9899 16.3848 3.9899 19.3966H6.0101C6.0101 16.9205 6.99371 14.5459 8.74455 12.7951L7.31605 11.3666ZM15.3461 8.0404C12.3342 8.0404 9.44575 9.23686 7.31605 11.3666L8.74455 12.7951C10.4954 11.0442 12.87 10.0606 15.3461 10.0606V8.0404Z" fill="#8EA2C7"/>
</svg>
